<svg version="1.1" xmlns="http://www.w3.org/2000/svg" xmlns:xlink="http://www.w3.org/1999/xlink" width="448.55567" height="448.41516" viewBox="0,0,448.55567,448.41516"><g transform="translate(-15.21473,44.69729)"><g data-paper-data="{&quot;isPaintingLayer&quot;:true}" stroke="none" stroke-width="1" stroke-linecap="butt" stroke-linejoin="miter" stroke-miterlimit="10" stroke-dasharray="" stroke-dashoffset="0" style="mix-blend-mode: normal"><path d="M67.66797,-12.59766c1.19222,0.00212 1.19222,0.00212 2.40852,0.00429c2.53704,0.00559 5.07399,0.01815 7.61101,0.03087c1.7207,0.00502 3.44141,0.00958 5.16211,0.01367c4.21686,0.01017 8.43353,0.02975 12.65039,0.04883c0,10.56 0,21.12 0,32c10.56,0 21.12,0 32,0c0,-10.56 0,-21.12 0,-32c10.56,0 21.12,0 32,0c0,10.56 0,21.12 0,32c10.56,0 21.12,0 32,0c0,-10.56 0,-21.12 0,-32c10.56,0 21.12,0 32,0c0,10.56 0,21.12 0,32c10.56,0 21.12,0 32,0c0,-10.56 0,-21.12 0,-32c10.56,0 21.12,0 32,0c0,10.56 0,21.12 0,32c10.56,0 21.12,0 32,0c0,-10.56 0,-21.12 0,-32c10.56,0 21.12,0 32,0c0,10.56 0,21.12 0,32c10.56,0 21.12,0 32,0c0,-10.56 0,-21.12 0,-32c4.99971,-0.09216 9.99645,-0.17169 14.99634,-0.21973c1.69834,-0.02004 3.39662,-0.04727 5.09473,-0.08203c2.45029,-0.04888 4.89965,-0.07129 7.35034,-0.08887c1.12699,-0.03097 1.12699,-0.03097 2.27675,-0.06256c5.54354,-0.00233 8.70336,1.3068 13.28185,4.45319c4.69513,5.18935 5.14172,8.4674 5.09766,15.28906c-0.00212,1.22764 -0.00212,1.22764 -0.00429,2.48007c-0.00561,2.61866 -0.01816,5.23723 -0.03087,7.85587c-0.00501,1.77344 -0.00958,3.54687 -0.01367,5.32031c-0.01019,4.35162 -0.02976,8.70306 -0.04883,13.05469c-10.56,0 -21.12,0 -32,0c0,10.56 0,21.12 0,32c10.56,0 21.12,0 32,0c0,10.56 0,21.12 0,32c-10.56,0 -21.12,0 -32,0c0,10.56 0,21.12 0,32c10.56,0 21.12,0 32,0c0,10.56 0,21.12 0,32c-10.56,0 -21.12,0 -32,0c0,10.56 0,21.12 0,32c10.56,0 21.12,0 32,0c0,10.56 0,21.12 0,32c-10.56,0 -21.12,0 -32,0c0,10.56 0,21.12 0,32c10.56,0 21.12,0 32,0c0,10.56 0,21.12 0,32c-10.56,0 -21.12,0 -32,0c0,10.56 0,21.12 0,32c10.56,0 21.12,0 32,0c0.06905,5.01761 0.12873,10.03356 0.16479,15.05127c0.01504,1.70514 0.03548,3.41023 0.06152,5.11523c0.03658,2.45762 0.05345,4.91472 0.06665,7.37256c0.01548,0.75649 0.03097,1.51298 0.04692,2.29239c0.00172,5.45861 -1.03312,9.63951 -4.83989,13.81308c-5.31709,4.14013 -9.12562,4.49687 -15.66797,4.45313c-0.79481,-0.00141 -1.58963,-0.00283 -2.40852,-0.00429c-2.53704,-0.00559 -5.07399,-0.01815 -7.61101,-0.03087c-1.7207,-0.00502 -3.44141,-0.00958 -5.16211,-0.01367c-4.21686,-0.01017 -8.43353,-0.02975 -12.65039,-0.04883c0,-10.56 0,-21.12 0,-32c-10.56,0 -21.12,0 -32,0c0,10.56 0,21.12 0,32c-10.56,0 -21.12,0 -32,0c0,-10.56 0,-21.12 0,-32c-10.56,0 -21.12,0 -32,0c0,10.56 0,21.12 0,32c-10.56,0 -21.12,0 -32,0c0,-10.56 0,-21.12 0,-32c-10.56,0 -21.12,0 -32,0c0,10.56 0,21.12 0,32c-10.56,0 -21.12,0 -32,0c0,-10.56 0,-21.12 0,-32c-10.56,0 -21.12,0 -32,0c0,10.56 0,21.12 0,32c-10.56,0 -21.12,0 -32,0c0,-10.56 0,-21.12 0,-32c-10.56,0 -21.12,0 -32,0c0,10.56 0,21.12 0,32c-5.16041,0.09206 -10.31794,0.17162 -15.47852,0.21973c-1.75368,0.02006 -3.50729,0.04732 -5.26074,0.08203c-2.52719,0.04877 -5.05348,0.07127 -7.58105,0.08887c-0.77836,0.02065 -1.55672,0.04129 -2.35867,0.06256c-6.08969,0.00249 -9.4082,-1.85189 -13.98972,-5.94342c-5.3091,-7.17345 -3.86143,-16.54774 -3.6438,-25.00977c0.02511,-1.69788 0.04792,-3.3958 0.06836,-5.09375c0.0505,-4.13703 0.14837,-8.26904 0.24414,-12.40625c10.56,0 21.12,0 32,0c0,-10.56 0,-21.12 0,-32c-10.56,0 -21.12,0 -32,0c0,-10.56 0,-21.12 0,-32c10.56,0 21.12,0 32,0c0,-10.56 0,-21.12 0,-32c-10.56,0 -21.12,0 -32,0c0,-10.56 0,-21.12 0,-32c10.56,0 21.12,0 32,0c0,-10.56 0,-21.12 0,-32c-10.56,0 -21.12,0 -32,0c0,-10.56 0,-21.12 0,-32c10.56,0 21.12,0 32,0c0,-10.56 0,-21.12 0,-32c-10.56,0 -21.12,0 -32,0c0,-10.56 0,-21.12 0,-32c10.56,0 21.12,0 32,0c0,-10.56 0,-21.12 0,-32c-10.56,0 -21.12,0 -32,0c-0.09206,-5.16041 -0.17162,-10.31794 -0.21973,-15.47852c-0.02006,-1.75368 -0.04732,-3.50729 -0.08203,-5.26074c-0.04877,-2.52719 -0.07127,-5.05348 -0.08887,-7.58105c-0.02065,-0.77836 -0.04129,-1.55672 -0.06256,-2.35867c-0.00214,-5.24784 1.01921,-8.13728 4.45319,-12.32101c5.27451,-4.75992 9.28251,-5.14369 16.16797,-5.09766z" fill="#445a63" fill-rule="nonzero"/><path d="M67.66797,-12.59766c1.19222,0.00212 1.19222,0.00212 2.40852,0.00429c2.53704,0.00559 5.07399,0.01815 7.61101,0.03087c1.7207,0.00502 3.44141,0.00958 5.16211,0.01367c4.21686,0.01017 8.43353,0.02975 12.65039,0.04883c0,10.56 0,21.12 0,32c10.56,0 21.12,0 32,0c0,-10.56 0,-21.12 0,-32c10.56,0 21.12,0 32,0c0,10.56 0,21.12 0,32c10.56,0 21.12,0 32,0c0,-10.56 0,-21.12 0,-32c10.56,0 21.12,0 32,0c0,10.56 0,21.12 0,32c10.56,0 21.12,0 32,0c0,-10.56 0,-21.12 0,-32c10.56,0 21.12,0 32,0c0,10.56 0,21.12 0,32c10.56,0 21.12,0 32,0c0,-10.56 0,-21.12 0,-32c10.56,0 21.12,0 32,0c0,10.56 0,21.12 0,32c10.56,0 21.12,0 32,0c0,-10.56 0,-21.12 0,-32c4.99971,-0.09216 9.99645,-0.17169 14.99634,-0.21973c1.69834,-0.02004 3.39662,-0.04727 5.09473,-0.08203c2.45029,-0.04888 4.89965,-0.07129 7.35034,-0.08887c1.12699,-0.03097 1.12699,-0.03097 2.27675,-0.06256c5.54354,-0.00233 8.70336,1.3068 13.28185,4.45319c4.69513,5.18935 5.14172,8.4674 5.09766,15.28906c-0.00212,1.22764 -0.00212,1.22764 -0.00429,2.48007c-0.00561,2.61866 -0.01816,5.23723 -0.03087,7.85587c-0.00501,1.77344 -0.00958,3.54687 -0.01367,5.32031c-0.01019,4.35162 -0.02976,8.70306 -0.04883,13.05469c-10.56,0 -21.12,0 -32,0c0,10.56 0,21.12 0,32c10.56,0 21.12,0 32,0c0,10.56 0,21.12 0,32c-10.56,0 -21.12,0 -32,0c0,10.56 0,21.12 0,32c10.56,0 21.12,0 32,0c0,10.56 0,21.12 0,32c-10.56,0 -21.12,0 -32,0c0,10.56 0,21.12 0,32c10.56,0 21.12,0 32,0c0,10.56 0,21.12 0,32c-10.56,0 -21.12,0 -32,0c0,10.56 0,21.12 0,32c10.56,0 21.12,0 32,0c0,10.56 0,21.12 0,32c-10.56,0 -21.12,0 -32,0c0,10.56 0,21.12 0,32c10.56,0 21.12,0 32,0c0.06905,5.01761 0.12873,10.03356 0.16479,15.05127c0.01504,1.70514 0.03548,3.41023 0.06152,5.11523c0.03658,2.45762 0.05345,4.91472 0.06665,7.37256c0.01548,0.75649 0.03097,1.51298 0.04692,2.29239c0.00172,5.45861 -1.03312,9.63951 -4.83989,13.81308c-5.31709,4.14013 -9.12562,4.49687 -15.66797,4.45313c-0.79481,-0.00141 -1.58963,-0.00283 -2.40852,-0.00429c-2.53704,-0.00559 -5.07399,-0.01815 -7.61101,-0.03087c-1.7207,-0.00502 -3.44141,-0.00958 -5.16211,-0.01367c-4.21686,-0.01017 -8.43353,-0.02975 -12.65039,-0.04883c0,-10.56 0,-21.12 0,-32c-10.56,0 -21.12,0 -32,0c0,10.56 0,21.12 0,32c-10.56,0 -21.12,0 -32,0c0,-10.56 0,-21.12 0,-32c-10.56,0 -21.12,0 -32,0c0,10.56 0,21.12 0,32c-10.56,0 -21.12,0 -32,0c0,-10.56 0,-21.12 0,-32c-10.56,0 -21.12,0 -32,0c0,10.56 0,21.12 0,32c-10.56,0 -21.12,0 -32,0c0,-10.56 0,-21.12 0,-32c-10.56,0 -21.12,0 -32,0c0,10.56 0,21.12 0,32c-10.56,0 -21.12,0 -32,0c0,-10.56 0,-21.12 0,-32c-10.56,0 -21.12,0 -32,0c0,10.56 0,21.12 0,32c-5.16041,0.09206 -10.31794,0.17162 -15.47852,0.21973c-1.75368,0.02006 -3.50729,0.04732 -5.26074,0.08203c-2.52719,0.04877 -5.05348,0.07127 -7.58105,0.08887c-0.77836,0.02065 -1.55672,0.04129 -2.35867,0.06256c-6.08969,0.00249 -9.4082,-1.85189 -13.98972,-5.94342c-5.3091,-7.17345 -3.86143,-16.54774 -3.6438,-25.00977c0.02511,-1.69788 0.04792,-3.3958 0.06836,-5.09375c0.0505,-4.13703 0.14837,-8.26904 0.24414,-12.40625c10.56,0 21.12,0 32,0c0,-10.56 0,-21.12 0,-32c-10.56,0 -21.12,0 -32,0c0,-10.56 0,-21.12 0,-32c10.56,0 21.12,0 32,0c0,-10.56 0,-21.12 0,-32c-10.56,0 -21.12,0 -32,0c0,-10.56 0,-21.12 0,-32c10.56,0 21.12,0 32,0c0,-10.56 0,-21.12 0,-32c-10.56,0 -21.12,0 -32,0c0,-10.56 0,-21.12 0,-32c10.56,0 21.12,0 32,0c0,-10.56 0,-21.12 0,-32c-10.56,0 -21.12,0 -32,0c0,-10.56 0,-21.12 0,-32c10.56,0 21.12,0 32,0c0,-10.56 0,-21.12 0,-32c-10.56,0 -21.12,0 -32,0c-0.09206,-5.16041 -0.17162,-10.31794 -0.21973,-15.47852c-0.02006,-1.75368 -0.04732,-3.50729 -0.08203,-5.26074c-0.04877,-2.52719 -0.07127,-5.05348 -0.08887,-7.58105c-0.02065,-0.77836 -0.04129,-1.55672 -0.06256,-2.35867c-0.00214,-5.24784 1.01921,-8.13728 4.45319,-12.32101c5.27451,-4.75992 9.28251,-5.14369 16.16797,-5.09766zM115.85547,56.03516c-4.18596,5.47394 -4.50716,8.71437 -4.5161,15.49037c-0.00509,0.94683 -0.01018,1.89365 -0.01542,2.86917c-0.01578,3.19273 -0.02426,6.38544 -0.03269,9.5782c-0.00953,2.28123 -0.01943,4.56246 -0.02965,6.84369c-0.03144,7.51034 -0.05166,15.02069 -0.07021,22.53107c-0.0033,1.27695 -0.00659,2.5539 -0.00999,3.86954c-0.03079,12.03967 -0.05766,24.07934 -0.07442,36.11904c-0.00395,2.78953 -0.00795,5.57907 -0.01202,8.3686c-0.00101,0.69332 -0.00202,1.38664 -0.00306,2.10097c-0.01699,11.22303 -0.05809,22.44583 -0.10897,33.66875c-0.05182,11.52511 -0.08042,23.05008 -0.08815,34.57531c-0.00496,6.46985 -0.02005,12.93931 -0.05974,19.40904c-0.03686,6.08957 -0.04528,12.17851 -0.03199,18.26817c-0.00005,2.23286 -0.01035,4.46575 -0.03175,6.69851c-0.0277,3.05407 -0.01816,6.1059 0.00043,9.15999c-0.01679,0.87901 -0.03359,1.75802 -0.05089,2.66367c0.10261,6.76514 2.45528,11.10075 6.77915,16.25074c3.78903,3.13525 6.75631,3.38142 11.60693,3.40405c1.97763,0.01903 1.97763,0.01903 3.99521,0.03844c1.4321,-0.00205 2.8642,-0.00504 4.2963,-0.0089c1.47824,0.00456 2.95648,0.00987 4.43472,0.01588c3.09509,0.00892 6.18992,0.00652 9.285,-0.00343c3.95328,-0.01148 7.90567,0.0087 11.85883,0.03792c3.05251,0.01841 6.10481,0.01806 9.15736,0.01236c1.45676,-0.00015 2.91353,0.00585 4.37023,0.01829c9.33229,0.06847 15.38308,-0.25148 22.47197,-6.80368c0.70898,-0.77086 1.41797,-1.54172 2.14844,-2.33594c3.69897,-4.01946 6.59621,-6.11279 12.1378,-6.6357c1.00116,-0.00461 2.00233,-0.00921 3.03383,-0.01396c1.14146,-0.00953 2.28292,-0.01906 3.45897,-0.02888c1.22405,0.00091 2.4481,0.00182 3.70924,0.00276c1.26607,-0.00429 2.53213,-0.00857 3.83656,-0.01299c2.67563,-0.00574 5.35088,-0.00718 8.02647,-0.00191c3.41741,0.00579 6.83428,-0.01114 10.25161,-0.03434c3.27428,-0.01833 6.54853,-0.01455 9.82285,-0.01326c1.22203,-0.00921 2.44405,-0.01842 3.70311,-0.02791c7.27846,0.03961 12.19099,0.44392 17.7383,5.54744c2.15625,2.34375 2.15625,2.34375 4.3125,4.6875c4.60262,4.23441 8.80576,5.5315 14.98828,5.54443c1.30155,0.00946 2.6031,0.01891 3.94409,0.02866c1.40796,-0.00537 2.81592,-0.01152 4.22388,-0.0184c1.45679,0.00202 2.91358,0.00494 4.37036,0.0087c3.04624,0.00441 6.09222,-0.00197 9.13843,-0.01602c3.89381,-0.01709 7.78701,-0.00724 11.6808,0.01072c3.00614,0.01087 6.01212,0.00738 9.01826,-0.00038c1.43524,-0.00199 2.8705,0.00043 4.30573,0.00744c2.00979,0.00767 4.01963,-0.0061 6.02939,-0.0207c1.14106,-0.00239 2.28212,-0.00477 3.45776,-0.00723c4.26981,-0.51042 7.6417,-1.97167 10.8313,-4.88095c4.35564,-5.59386 4.50406,-9.78693 4.50264,-16.66597c0.00552,-1.4247 0.00552,-1.4247 0.01114,-2.87817c0.01105,-3.19664 0.01488,-6.39324 0.01869,-9.58989c0.00626,-2.28625 0.01291,-4.57249 0.01991,-6.85873c0.01742,-6.2211 0.02796,-12.44219 0.03621,-18.6633c0.00515,-3.88445 0.01122,-7.76889 0.01751,-11.65334c0.01687,-10.7548 0.0315,-21.50959 0.03875,-32.2644c0.00191,-2.79042 0.00383,-5.58084 0.00579,-8.37126c0.00048,-0.69354 0.00097,-1.38709 0.00147,-2.10165c0.0083,-11.23786 0.03364,-22.47562 0.06611,-33.71344c0.03307,-11.53756 0.05075,-23.07505 0.05428,-34.61265c0.00235,-6.47803 0.01136,-12.95588 0.03646,-19.43386c0.02323,-6.09276 0.02754,-12.18524 0.01724,-18.27803c-0.0005,-2.23733 0.00587,-4.47468 0.01956,-6.71197c0.01764,-3.05247 0.01065,-6.10393 -0.00253,-9.15641c0.01097,-0.88707 0.02194,-1.77414 0.03324,-2.68808c-0.05688,-5.44653 -0.9052,-8.53306 -4.52099,-12.85884c-5.5362,-4.99609 -9.91557,-5.14746 -17.12801,-5.14044c-0.94571,-0.00297 -1.89143,-0.00594 -2.8658,-0.009c-3.18282,-0.0087 -6.3656,-0.0102 -9.54843,-0.01169c-2.27639,-0.00463 -4.55279,-0.00965 -6.82918,-0.01505c-6.19424,-0.01314 -12.38847,-0.01957 -18.58273,-0.02401c-3.8677,-0.00293 -7.73539,-0.00703 -11.60308,-0.0115c-10.70847,-0.01211 -21.41695,-0.02249 -32.12543,-0.02588c-0.68537,-0.00022 -1.37074,-0.00044 -2.07688,-0.00067c-0.68701,-0.00022 -1.37402,-0.00044 -2.08185,-0.00066c-1.39215,-0.00044 -2.78429,-0.00089 -4.17644,-0.00134c-0.69055,-0.00022 -1.3811,-0.00044 -2.09258,-0.00067c-11.18934,-0.00395 -22.37862,-0.0214 -33.56794,-0.04469c-11.48784,-0.02371 -22.97563,-0.03592 -34.46349,-0.03734c-6.45005,-0.00105 -12.9,-0.00699 -19.35003,-0.02482c-6.06646,-0.01645 -12.13276,-0.01865 -18.19924,-0.00986c-2.22765,0.00077 -4.45532,-0.0036 -6.68295,-0.01346c-3.03919,-0.01267 -6.07781,-0.00687 -9.117,0.00358c-0.88318,-0.00806 -1.76635,-0.01611 -2.67629,-0.02441c-5.72025,0.04607 -10.12156,0.86112 -14.4772,4.92706z" fill="#429e46" fill-rule="nonzero"/><path d="M67.66797,-12.59766c1.19222,0.00212 1.19222,0.00212 2.40852,0.00429c2.53704,0.00559 5.07399,0.01815 7.61101,0.03087c1.7207,0.00502 3.44141,0.00958 5.16211,0.01367c4.21686,0.01017 8.43353,0.02975 12.65039,0.04883c0,10.56 0,21.12 0,32c10.56,0 21.12,0 32,0c0,-10.56 0,-21.12 0,-32c10.56,0 21.12,0 32,0c0,10.56 0,21.12 0,32c10.56,0 21.12,0 32,0c0,-10.56 0,-21.12 0,-32c10.56,0 21.12,0 32,0c0,10.56 0,21.12 0,32c10.56,0 21.12,0 32,0c0,-10.56 0,-21.12 0,-32c10.56,0 21.12,0 32,0c0,10.56 0,21.12 0,32c10.56,0 21.12,0 32,0c0,-10.56 0,-21.12 0,-32c10.56,0 21.12,0 32,0c0,10.56 0,21.12 0,32c10.56,0 21.12,0 32,0c0,-10.56 0,-21.12 0,-32c4.99971,-0.09216 9.99645,-0.17169 14.99634,-0.21973c1.69834,-0.02004 3.39662,-0.04727 5.09473,-0.08203c2.45029,-0.04888 4.89965,-0.07129 7.35034,-0.08887c1.12699,-0.03097 1.12699,-0.03097 2.27675,-0.06256c5.52481,-0.00232 8.68521,1.39053 13.28185,4.45319c-2.30835,4.28347 -5.2708,7.57877 -8.67725,10.99951c-0.56787,0.5778 -1.13573,1.15559 -1.72081,1.7509c-1.86958,1.89866 -3.74675,3.78957 -5.62538,5.67928c-1.30653,1.31804 -2.61306,2.63609 -3.91959,3.95413c-2.73485,2.75582 -5.4743,5.50699 -8.21616,8.25583c-3.51654,3.52755 -7.01413,7.0733 -10.50767,10.62361c-2.68883,2.726 -5.39091,5.43857 -8.09685,8.14757c-1.29598,1.30205 -2.58695,2.6091 -3.8728,3.92117c-1.79536,1.82935 -3.60857,3.63896 -5.42748,5.44486c-0.529,0.54743 -1.05801,1.09487 -1.60304,1.65889c-1.51204,1.47829 -1.51204,1.47829 -4.33299,3.56425c-2.85061,-0.05281 -4.42118,-0.68083 -6.89252,-2.04356c-2.27314,-1.03162 -3.72695,-1.20785 -6.20614,-1.21091c-0.81241,-0.00583 -1.62482,-0.01166 -2.46185,-0.01767c-0.88696,0.00378 -1.77391,0.00756 -2.68775,0.01145c-0.94657,-0.00383 -1.89314,-0.00765 -2.86839,-0.01159c-3.17976,-0.01034 -6.35934,-0.00634 -9.53911,-0.00237c-2.27654,-0.00435 -4.55308,-0.00953 -6.82962,-0.01549c-6.19007,-0.01341 -12.38007,-0.01397 -18.57015,-0.01144c-5.16415,0.00107 -10.32829,-0.00381 -15.49244,-0.00861c-12.87873,-0.01174 -25.75742,-0.01087 -38.63615,-0.00444c-11.18282,0.00517 -22.36555,-0.00608 -33.54835,-0.0251c-11.48335,-0.01938 -22.96665,-0.02734 -34.45002,-0.02388c-6.44667,0.00182 -12.89326,-0.00084 -19.33992,-0.01471c-6.06238,-0.01255 -12.12459,-0.01066 -18.18697,0.00241c-2.22604,0.00237 -4.45209,-0.00039 -6.67811,-0.00862c-3.03696,-0.01043 -6.07333,-0.0024 -9.11027,0.01031c-1.32374,-0.01106 -1.32374,-0.01106 -2.67423,-0.02235c-5.02299,0.04427 -8.47896,0.60575 -12.828,3.39657c-4.87709,5.40434 -5.14729,8.9604 -5.14044,16.05244c-0.00297,0.94965 -0.00594,1.8993 -0.009,2.87772c-0.00872,3.20208 -0.0102,6.40412 -0.01169,9.60621c-0.00463,2.28772 -0.00965,4.57544 -0.01505,6.86316c-0.01315,6.22936 -0.01957,12.4587 -0.02401,18.68807c-0.00293,3.88862 -0.00703,7.77724 -0.0115,11.66586c-0.01211,10.76334 -0.02249,21.52667 -0.02588,32.29002c-0.00022,0.68913 -0.00044,1.37825 -0.00067,2.08826c-0.00022,0.69079 -0.00044,1.38158 -0.00066,2.0933c-0.00044,1.39984 -0.00089,2.79968 -0.00134,4.19952c-0.00022,0.69437 -0.00044,1.38874 -0.00067,2.10415c-0.00395,11.25151 -0.0214,22.50296 -0.04469,33.75445c-0.02371,11.54769 -0.03592,23.09534 -0.03734,34.64305c-0.00105,6.48524 -0.007,12.97039 -0.02482,19.45561c-0.01644,6.09928 -0.01866,12.19839 -0.00986,18.29768c0.00077,2.24097 -0.0036,4.48195 -0.01346,6.72291c-0.01265,3.05492 -0.00688,6.10927 0.00358,9.16419c-0.00806,0.89066 -0.01611,1.78133 -0.02441,2.69898c0.0389,4.84199 0.486,7.68277 3.39191,11.73442c0.0546,3.70593 -0.998,4.99758 -3.3779,7.87238c-1.05499,1.07262 -2.12112,2.13434 -3.19583,3.18719c-0.87081,0.87651 -0.87081,0.87651 -1.75922,1.77072c-1.91845,1.92585 -3.8509,3.83694 -5.78424,5.74783c-1.33733,1.33494 -2.67392,2.67063 -4.0098,4.00702c-2.8,2.79688 -5.60659,5.58691 -8.41843,8.37189c-3.60733,3.57332 -7.20132,7.15969 -10.79092,10.75081c-2.7583,2.75776 -5.52178,5.51028 -8.28705,8.26105c-1.3273,1.32093 -2.65338,2.64307 -3.97823,3.96645c-1.85031,1.84599 -3.70705,3.68524 -5.56586,5.52267c-0.82303,0.82439 -0.82303,0.82439 -1.66269,1.66544c-2.38124,2.34122 -3.95602,3.80529 -7.16983,4.87656c-3.61642,-5.42776 -4.56814,-9.09848 -4.39062,-15.55859c0.00566,-0.78915 0.01132,-1.57831 0.01715,-2.39137c0.02222,-2.49649 0.07238,-4.99149 0.12347,-7.48753c0.02008,-1.70245 0.03833,-3.40493 0.05469,-5.10742c0.04046,-4.15271 0.11876,-8.30225 0.19531,-12.45508c10.56,0 21.12,0 32,0c0,-10.56 0,-21.12 0,-32c-10.56,0 -21.12,0 -32,0c0,-10.56 0,-21.12 0,-32c10.56,0 21.12,0 32,0c0,-10.56 0,-21.12 0,-32c-10.56,0 -21.12,0 -32,0c0,-10.56 0,-21.12 0,-32c10.56,0 21.12,0 32,0c0,-10.56 0,-21.12 0,-32c-10.56,0 -21.12,0 -32,0c0,-10.56 0,-21.12 0,-32c10.56,0 21.12,0 32,0c0,-10.56 0,-21.12 0,-32c-10.56,0 -21.12,0 -32,0c0,-10.56 0,-21.12 0,-32c10.56,0 21.12,0 32,0c0,-10.56 0,-21.12 0,-32c-10.56,0 -21.12,0 -32,0c-0.09206,-5.16041 -0.17162,-10.31794 -0.21973,-15.47852c-0.02006,-1.75368 -0.04732,-3.50729 -0.08203,-5.26074c-0.04877,-2.52719 -0.07127,-5.05348 -0.08887,-7.58105c-0.02065,-0.77836 -0.04129,-1.55672 -0.06256,-2.35867c-0.00214,-5.24784 1.01921,-8.13728 4.45319,-12.32101c5.27451,-4.75992 9.28251,-5.14369 16.16797,-5.09766z" fill="#65b869" fill-rule="nonzero"/><path d="M174.53165,83.21912c1.18572,-0.01142 2.37143,-0.02284 3.59308,-0.03461c1.28738,-0.00224 2.57476,-0.00447 3.90115,-0.00677c1.38042,-0.00927 2.76083,-0.01932 4.14124,-0.03009c3.74,-0.02615 7.47993,-0.03912 11.22,-0.04802c2.34159,-0.00588 4.68315,-0.01409 7.02473,-0.02301c7.34056,-0.02733 14.68107,-0.04667 22.02167,-0.0544c8.44688,-0.00895 16.89311,-0.044 25.33979,-0.102c6.54634,-0.04338 13.0925,-0.06342 19.63898,-0.06608c3.90176,-0.00209 7.80292,-0.01369 11.70453,-0.04964c3.67587,-0.03321 7.35068,-0.03715 11.02665,-0.01972c1.97296,0.00225 3.94589,-0.02499 5.91864,-0.0535c10.10681,0.09361 17.11574,3.22064 25.4379,8.76874c-0.54985,3.87512 -2.27555,5.59577 -5.0625,8.25c-0.73348,0.70641 -1.46695,1.41281 -2.22266,2.14063c-0.5659,0.53109 -1.1318,1.06219 -1.71484,1.60938c1.3976,3.54519 1.3976,3.54519 3,7c0.10399,1.79363 0.14387,3.59111 0.1539,5.38773c0.0086,1.14393 0.0172,2.28785 0.02606,3.46645c0.00639,1.89194 0.00639,1.89194 0.01291,3.8221c0.0079,1.33705 0.01617,2.6741 0.02478,4.01115c0.02623,4.39844 0.04153,8.79689 0.05579,13.19539c0.00536,1.51479 0.01074,3.02958 0.01613,4.54437c0.02163,6.30343 0.04037,12.60687 0.05162,18.91033c0.01622,9.02806 0.04936,18.05569 0.1064,27.08359c0.03875,6.35001 0.05824,12.6999 0.06352,19.05002c0.00365,3.79097 0.01561,7.58149 0.0481,11.37233c0.03017,3.57064 0.03636,7.14054 0.02462,10.71128c-0.00032,1.92605 0.02408,3.85205 0.04938,5.77793c-0.05149,7.18512 -0.81766,12.15429 -5.63321,17.66734c-3.906,3.56135 -7.3049,4.12492 -12.48347,4.14044c-1.70967,0.00857 -1.70967,0.00857 -3.45387,0.0173c-1.25149,0.00112 -2.50298,0.00224 -3.79239,0.00339c-1.31729,0.00496 -2.63457,0.00993 -3.99178,0.01505c-3.61581,0.01312 -7.23161,0.01957 -10.84744,0.02401c-2.2596,0.00293 -4.5192,0.00704 -6.7788,0.0115c-7.07145,0.01367 -14.14289,0.02334 -21.21435,0.0272c-8.15981,0.00448 -16.31944,0.02203 -24.4792,0.051c-6.30924,0.02163 -12.61842,0.0317 -18.92769,0.03304c-3.76729,0.00105 -7.53442,0.00694 -11.30167,0.02482c-3.54507,0.0165 -7.08987,0.01863 -10.63497,0.00986c-1.91683,-0.00114 -3.83365,0.01257 -5.75043,0.02675c-6.0191,-0.02919 -10.20719,-0.18623 -15.34393,-3.38437c-4.10188,1.11666 -6.52785,4.49587 -9.31641,7.53906c-1.68359,1.46094 -1.68359,1.46094 -4.68359,1.46094c-1.53516,-2.01172 -1.53516,-2.01172 -3.0625,-4.6875c-0.5066,-0.87012 -1.0132,-1.74023 -1.53516,-2.63672c-2.46186,-4.69742 -3.6524,-8.26423 -3.66977,-13.60736c-0.00853,-1.18868 -0.01706,-2.37735 -0.02585,-3.60205c0.00091,-1.29569 0.00181,-2.59138 0.00275,-3.92633c-0.00599,-1.38514 -0.01279,-2.77027 -0.02036,-4.1554c-0.01765,-3.7564 -0.02235,-7.51272 -0.02363,-11.26916c-0.00142,-2.34977 -0.0057,-4.69951 -0.01099,-7.04927c-0.0185,-8.20601 -0.02667,-16.41195 -0.0251,-24.61797c0.0012,-7.63503 -0.01988,-15.26978 -0.05149,-22.90474c-0.0262,-6.56581 -0.03688,-13.13152 -0.0356,-19.69738c0.00051,-3.91662 -0.00511,-7.83299 -0.02636,-11.74956c-0.01945,-3.68718 -0.01946,-7.37386 -0.00497,-11.06106c0.00307,-1.98661 -0.01354,-3.97322 -0.03088,-5.95976c0.05081,-7.26794 0.85217,-12.74904 4.5199,-19.07574c0.68643,-1.19689 0.68643,-1.19689 1.38672,-2.41797c6.31585,-8.59184 14.83108,-13.80021 25.64493,-13.86292z" fill="#536d79" fill-rule="nonzero"/><path d="M361.5,56.5c2.41084,0.96434 3.73938,1.57509 5.11691,3.82098c0.92749,2.28857 1.13454,3.83817 1.13757,6.2933c0.00583,0.8159 0.01166,1.63179 0.01767,2.47241c-0.00378,0.89085 -0.00756,1.78169 -0.01145,2.69954c0.00383,0.95065 0.00765,1.9013 0.01159,2.88076c0.01034,3.19358 0.00634,6.38698 0.00237,9.58057c0.00435,2.28639 0.00953,4.57279 0.01549,6.85918c0.01341,6.21693 0.01397,12.43379 0.01144,18.65073c-0.00107,5.18652 0.00381,10.37303 0.00861,15.55955c0.01174,12.93449 0.01087,25.86894 0.00444,38.80343c-0.00517,11.23132 0.00608,22.46255 0.0251,33.69385c0.01938,11.53307 0.02734,23.0661 0.02388,34.59919c-0.00182,6.47462 0.00085,12.94915 0.01471,19.42376c0.01255,6.08865 0.01066,12.17712 -0.00241,18.26576c-0.00237,2.23571 0.00039,4.47144 0.00862,6.70714c0.01043,3.0501 0.0024,6.0996 -0.01031,9.14968c0.00737,0.88639 0.01475,1.77277 0.02235,2.68602c-0.05029,5.73005 -0.88128,10.09653 -4.89657,14.49871c-4.77556,3.71847 -7.80666,4.48114 -13.77222,4.54834c-1.29532,0.01606 -2.59064,0.03213 -3.92522,0.04868c-1.41726,0.01149 -2.83452,0.0221 -4.25179,0.03189c-0.71541,0.00532 -1.43083,0.01065 -2.16792,0.01613c-3.78931,0.02671 -7.57859,0.04609 -11.36797,0.06053c-3.12628,0.01332 -6.2519,0.04113 -9.37793,0.08203c-3.78368,0.0495 -7.56676,0.07411 -11.35075,0.0812c-1.43645,0.00669 -2.87288,0.02184 -4.30914,0.04589c-10.1385,0.16007 -15.89791,-0.88436 -23.33254,-7.72718c-0.60457,-0.66645 -1.20914,-1.33289 -1.83203,-2.01953c-3.44379,-3.7918 -6.39449,-5.58434 -11.5753,-6.0732c-1.00116,-0.00461 -2.00233,-0.00921 -3.03383,-0.01396c-1.14146,-0.00953 -2.28292,-0.01906 -3.45897,-0.02888c-1.22405,0.00091 -2.4481,0.00182 -3.70924,0.00276c-1.8991,-0.00643 -1.8991,-0.00643 -3.83656,-0.01299c-2.67563,-0.00574 -5.35088,-0.00718 -8.02647,-0.00191c-3.41741,0.00579 -6.83428,-0.01114 -10.25161,-0.03434c-3.27428,-0.01833 -6.54853,-0.01455 -9.82285,-0.01326c-1.83304,-0.01381 -1.83304,-0.01381 -3.70311,-0.02791c-7.27846,0.03961 -12.19099,0.44392 -17.7383,5.54744c-0.71156,0.77344 -1.42312,1.54688 -2.15625,2.34375c-4.01564,4.36482 -7.69508,7.16279 -13.72473,7.88768c-1.73824,0.0081 -1.73824,0.0081 -3.5116,0.01637c-0.64473,0.00686 -1.28946,0.01373 -1.95372,0.0208c-2.11396,0.01818 -4.22718,0.01444 -6.3412,0.00874c-1.47921,0.00457 -2.95842,0.00987 -4.43762,0.01588c-3.09331,0.00891 -6.18636,0.00653 -9.27966,-0.00343c-3.95447,-0.0115 -7.90805,0.00874 -11.8624,0.03792c-3.05247,0.01839 -6.10472,0.01806 -9.15723,0.01236c-1.45758,-0.00015 -2.91518,0.00586 -4.37271,0.01829c-2.04149,0.01496 -4.08135,0.0042 -6.12279,-0.01291c-1.73824,-0.00025 -1.73824,-0.00025 -3.5116,-0.0005c-3.93466,-0.61155 -6.154,-2.00835 -9.22473,-4.50121c0,-0.66 0,-1.32 0,-2c1.27759,-1.25854 1.27759,-1.25854 3.16016,-2.79297c5.80347,-4.93622 11.12294,-10.34038 16.49683,-15.73364c1.79744,-1.80286 3.60024,-3.60024 5.40356,-5.39722c1.1455,-1.14616 2.2907,-2.29264 3.43555,-3.43945c0.53846,-0.53644 1.07692,-1.07287 1.6317,-1.62556c2.78064,-2.7455 2.78064,-2.7455 4.87221,-6.01115c3.68879,1.80248 7.2265,3.82762 10.78125,5.87891c4.01188,2.02713 7.55583,2.24974 12.02335,2.26826c1.77879,0.01073 1.77879,0.01073 3.59351,0.02168c1.29771,0.00269 2.59543,0.00538 3.93246,0.00815c1.38336,0.00627 2.76673,0.01292 4.15009,0.01991c4.54029,0.02101 9.08058,0.0314 13.62091,0.04137c1.56614,0.00405 3.13227,0.00817 4.69841,0.01235c7.36084,0.01905 14.72168,0.03328 22.08254,0.04161c8.48071,0.00976 16.96117,0.03606 25.44179,0.0765c6.56494,0.03023 13.12981,0.04497 19.69482,0.04828c3.91613,0.00234 7.83197,0.01121 11.74802,0.03646c3.68879,0.0234 7.37711,0.02747 11.06595,0.01724c1.98525,-0.00073 3.97048,0.01828 5.95564,0.03806c10.70743,-0.06182 19.3126,-2.37309 27.07513,-10.03304c7.1452,-8.28116 7.86695,-18.19822 7.78312,-28.68279c0.00679,-1.38131 0.01571,-2.76261 0.02655,-4.14389c0.02259,-3.71508 0.01404,-7.42946 -0.0019,-11.14456c-0.01277,-3.91013 -0.00089,-7.82021 0.00693,-11.73035c0.00907,-6.56318 -0.00281,-13.12607 -0.0267,-19.68921c-0.02721,-7.55968 -0.01839,-15.11869 0.00913,-22.67835c0.02278,-6.52103 0.02585,-13.04185 0.01281,-19.56291c-0.00775,-3.88141 -0.00897,-7.76251 0.00768,-11.6439c0.01457,-3.65132 0.00419,-7.30179 -0.02447,-10.95302c-0.00963,-1.9585 0.00498,-3.91707 0.02064,-5.87553c-0.11746,-9.94676 -2.37138,-18.50413 -8.67764,-26.37125c0.42373,-0.42151 0.84747,-0.84303 1.28404,-1.27731c4.3988,-4.37672 8.79411,-8.75693 13.18739,-13.13919c1.64135,-1.63632 3.28361,-3.27174 4.92676,-4.90625c2.3579,-2.3458 4.71258,-4.69479 7.06665,-7.04443c0.73855,-0.73339 1.47709,-1.46677 2.23802,-2.22238c0.68063,-0.68055 1.36126,-1.36111 2.06252,-2.06229c0.60179,-0.59957 1.20357,-1.19913 1.82359,-1.81686c1.50837,-1.49494 1.50837,-1.49494 2.41103,-3.53128z" fill="#36464e" fill-rule="nonzero"/><path d="M32.61401,291.38647c1.04085,0.00008 2.08171,0.00015 3.1541,0.00023c1.12195,0.00516 2.24391,0.01032 3.39986,0.01564c1.14995,0.00141 2.2999,0.00283 3.4847,0.00429c3.6783,0.0056 7.35655,0.01816 11.03484,0.03087c2.49154,0.00501 4.98307,0.00958 7.47461,0.01367c6.11267,0.01018 12.22521,0.02976 18.33789,0.04883c0,10.56 0,21.12 0,32c-7.43877,0.0919 -14.87557,0.17152 -22.31445,0.21973c-2.52969,0.0201 -5.05933,0.04738 -7.58887,0.08203c-3.63911,0.0486 -7.27761,0.07123 -10.91699,0.08887c-1.12834,0.02065 -2.25669,0.04129 -3.41922,0.06256c-6.25118,0.00178 -10.03515,-0.21096 -14.76047,-4.45319c-4.39893,-4.99338 -5.35676,-7.91015 -5.28125,-14.46094c0.54843,-4.9511 3.28171,-7.63704 6.84375,-10.85156c3.59939,-2.49189 6.28489,-2.81136 10.55151,-2.80103z" fill="#afbdc3" fill-rule="nonzero"/><path d="M32.61401,227.38647c1.04085,0.00008 2.08171,0.00015 3.1541,0.00023c1.12195,0.00516 2.24391,0.01032 3.39986,0.01564c1.14995,0.00141 2.2999,0.00283 3.4847,0.00429c3.6783,0.0056 7.35655,0.01816 11.03484,0.03087c2.49154,0.00501 4.98307,0.00958 7.47461,0.01367c6.11267,0.01018 12.22521,0.02976 18.33789,0.04883c0,10.56 0,21.12 0,32c-7.43877,0.0919 -14.87557,0.17152 -22.31445,0.21973c-2.52969,0.0201 -5.05933,0.04738 -7.58887,0.08203c-3.63911,0.0486 -7.27761,0.07123 -10.91699,0.08887c-1.12834,0.02065 -2.25669,0.04129 -3.41922,0.06256c-6.25118,0.00178 -10.03515,-0.21096 -14.76047,-4.45319c-4.39893,-4.99338 -5.35676,-7.91015 -5.28125,-14.46094c0.54843,-4.9511 3.28171,-7.63704 6.84375,-10.85156c3.59939,-2.49189 6.28489,-2.81136 10.55151,-2.80103z" fill="#afbdc3" fill-rule="nonzero"/><path d="M32.61401,163.38647c1.04085,0.00008 2.08171,0.00015 3.1541,0.00023c1.12195,0.00516 2.24391,0.01032 3.39986,0.01564c1.14995,0.00141 2.2999,0.00283 3.4847,0.00429c3.6783,0.0056 7.35655,0.01816 11.03484,0.03087c2.49154,0.00501 4.98307,0.00958 7.47461,0.01367c6.11267,0.01018 12.22521,0.02976 18.33789,0.04883c0,10.56 0,21.12 0,32c-7.43877,0.0919 -14.87557,0.17152 -22.31445,0.21973c-2.52969,0.0201 -5.05933,0.04738 -7.58887,0.08203c-3.63911,0.0486 -7.27761,0.07123 -10.91699,0.08887c-1.12834,0.02065 -2.25669,0.04129 -3.41922,0.06256c-6.25118,0.00178 -10.03515,-0.21096 -14.76047,-4.45319c-4.39893,-4.99338 -5.35676,-7.91015 -5.28125,-14.46094c0.54843,-4.9511 3.28171,-7.63704 6.84375,-10.85156c3.59939,-2.49189 6.28489,-2.81136 10.55151,-2.80103z" fill="#afbdc3" fill-rule="nonzero"/><path d="M32.61401,99.38647c1.04085,0.00008 2.08171,0.00015 3.1541,0.00023c1.12195,0.00516 2.24391,0.01032 3.39986,0.01564c1.14995,0.00141 2.2999,0.00283 3.4847,0.00429c3.6783,0.0056 7.35655,0.01816 11.03484,0.03087c2.49154,0.00501 4.98307,0.00958 7.47461,0.01367c6.11267,0.01018 12.22521,0.02976 18.33789,0.04883c0,10.56 0,21.12 0,32c-7.43877,0.0919 -14.87557,0.17152 -22.31445,0.21973c-2.52969,0.0201 -5.05933,0.04738 -7.58887,0.08203c-3.63911,0.0486 -7.27761,0.07123 -10.91699,0.08887c-1.12834,0.02065 -2.25669,0.04129 -3.41922,0.06256c-6.25118,0.00178 -10.03515,-0.21096 -14.76047,-4.45319c-4.39893,-4.99338 -5.35676,-7.91015 -5.28125,-14.46094c0.54843,-4.9511 3.28171,-7.63704 6.84375,-10.85156c3.59939,-2.49189 6.28489,-2.81136 10.55151,-2.80103z" fill="#afbdc3" fill-rule="nonzero"/><path d="M32.61401,35.38647c1.04085,0.00008 2.08171,0.00015 3.1541,0.00023c1.12195,0.00516 2.24391,0.01032 3.39986,0.01564c1.14995,0.00141 2.2999,0.00283 3.4847,0.00429c3.6783,0.0056 7.35655,0.01816 11.03484,0.03087c2.49154,0.00501 4.98307,0.00958 7.47461,0.01367c6.11267,0.01018 12.22521,0.02976 18.33789,0.04883c0,10.56 0,21.12 0,32c-7.43877,0.0919 -14.87557,0.17152 -22.31445,0.21973c-2.52969,0.0201 -5.05933,0.04738 -7.58887,0.08203c-3.63911,0.0486 -7.27761,0.07123 -10.91699,0.08887c-1.12834,0.02065 -2.25669,0.04129 -3.41922,0.06256c-6.25118,0.00178 -10.03515,-0.21096 -14.76047,-4.45319c-4.39893,-4.99338 -5.35676,-7.91015 -5.28125,-14.46094c0.54843,-4.9511 3.28171,-7.63704 6.84375,-10.85156c3.59939,-2.49189 6.28489,-2.81136 10.55151,-2.80103z" fill="#afbdc3" fill-rule="nonzero"/><path d="M399.5,291.5c7.29609,-0.06893 14.59105,-0.12865 21.88721,-0.16479c2.48116,-0.01507 4.96229,-0.03553 7.44336,-0.06152c3.56957,-0.03645 7.13878,-0.05342 10.7085,-0.06665c1.10647,-0.01548 2.21294,-0.03097 3.35294,-0.04692c6.41875,-0.0014 11.33053,0.28039 16.25253,4.87505c4.35308,5.69249 5.14501,9.33707 4.35547,16.46484c-2.21242,4.42485 -4.948,7.19477 -9,10c-3.00367,1.00122 -4.9774,1.12112 -8.11401,1.11353c-1.04085,-0.00008 -2.08171,-0.00015 -3.1541,-0.00023c-1.12195,-0.00516 -2.24391,-0.01032 -3.39986,-0.01564c-1.72492,-0.00212 -1.72492,-0.00212 -3.4847,-0.00429c-3.6783,-0.0056 -7.35655,-0.01816 -11.03484,-0.03087c-2.49154,-0.00501 -4.98307,-0.00958 -7.47461,-0.01367c-6.11267,-0.01018 -12.22521,-0.02976 -18.33789,-0.04883c0,-10.56 0,-21.12 0,-32z" fill="#afbdc3" fill-rule="nonzero"/><path d="M399.5,227.5c7.29609,-0.06893 14.59105,-0.12865 21.88721,-0.16479c2.48116,-0.01507 4.96229,-0.03553 7.44336,-0.06152c3.56957,-0.03645 7.13878,-0.05342 10.7085,-0.06665c1.10647,-0.01548 2.21294,-0.03097 3.35294,-0.04692c6.41875,-0.0014 11.33053,0.28039 16.25253,4.87505c4.35308,5.69249 5.14501,9.33707 4.35547,16.46484c-2.21242,4.42485 -4.948,7.19477 -9,10c-3.00367,1.00122 -4.9774,1.12112 -8.11401,1.11353c-1.04085,-0.00008 -2.08171,-0.00015 -3.1541,-0.00023c-1.12195,-0.00516 -2.24391,-0.01032 -3.39986,-0.01564c-1.72492,-0.00212 -1.72492,-0.00212 -3.4847,-0.00429c-3.6783,-0.0056 -7.35655,-0.01816 -11.03484,-0.03087c-2.49154,-0.00501 -4.98307,-0.00958 -7.47461,-0.01367c-6.11267,-0.01018 -12.22521,-0.02976 -18.33789,-0.04883c0,-10.56 0,-21.12 0,-32z" fill="#afbdc3" fill-rule="nonzero"/><path d="M399.5,163.5c7.29609,-0.06893 14.59105,-0.12865 21.88721,-0.16479c2.48116,-0.01507 4.96229,-0.03553 7.44336,-0.06152c3.56957,-0.03645 7.13878,-0.05342 10.7085,-0.06665c1.10647,-0.01548 2.21294,-0.03097 3.35294,-0.04692c6.41875,-0.0014 11.33053,0.28039 16.25253,4.87505c4.35308,5.69249 5.14501,9.33707 4.35547,16.46484c-2.21242,4.42485 -4.948,7.19477 -9,10c-3.00367,1.00122 -4.9774,1.12112 -8.11401,1.11353c-1.04085,-0.00008 -2.08171,-0.00015 -3.1541,-0.00023c-1.12195,-0.00516 -2.24391,-0.01032 -3.39986,-0.01564c-1.72492,-0.00212 -1.72492,-0.00212 -3.4847,-0.00429c-3.6783,-0.0056 -7.35655,-0.01816 -11.03484,-0.03087c-2.49154,-0.00501 -4.98307,-0.00958 -7.47461,-0.01367c-6.11267,-0.01018 -12.22521,-0.02976 -18.33789,-0.04883c0,-10.56 0,-21.12 0,-32z" fill="#afbdc3" fill-rule="nonzero"/><path d="M399.5,99.5c7.29609,-0.06893 14.59105,-0.12865 21.88721,-0.16479c2.48116,-0.01507 4.96229,-0.03553 7.44336,-0.06152c3.56957,-0.03645 7.13878,-0.05342 10.7085,-0.06665c1.10647,-0.01548 2.21294,-0.03097 3.35294,-0.04692c6.41875,-0.0014 11.33053,0.28039 16.25253,4.87505c4.35308,5.69249 5.14501,9.33707 4.35547,16.46484c-2.21242,4.42485 -4.948,7.19477 -9,10c-3.00367,1.00122 -4.9774,1.12112 -8.11401,1.11353c-1.04085,-0.00008 -2.08171,-0.00015 -3.1541,-0.00023c-1.12195,-0.00516 -2.24391,-0.01032 -3.39986,-0.01564c-1.72492,-0.00212 -1.72492,-0.00212 -3.4847,-0.00429c-3.6783,-0.0056 -7.35655,-0.01816 -11.03484,-0.03087c-2.49154,-0.00501 -4.98307,-0.00958 -7.47461,-0.01367c-6.11267,-0.01018 -12.22521,-0.02976 -18.33789,-0.04883c0,-10.56 0,-21.12 0,-32z" fill="#afbdc3" fill-rule="nonzero"/><path d="M399.5,35.5c7.29609,-0.06893 14.59105,-0.12865 21.88721,-0.16479c2.48116,-0.01507 4.96229,-0.03553 7.44336,-0.06152c3.56957,-0.03645 7.13878,-0.05342 10.7085,-0.06665c1.10647,-0.01548 2.21294,-0.03097 3.35294,-0.04692c6.41875,-0.0014 11.33053,0.28039 16.25253,4.87505c4.35308,5.69249 5.14501,9.33707 4.35547,16.46484c-2.21242,4.42485 -4.948,7.19477 -9,10c-3.00367,1.00122 -4.9774,1.12112 -8.11401,1.11353c-1.04085,-0.00008 -2.08171,-0.00015 -3.1541,-0.00023c-1.12195,-0.00516 -2.24391,-0.01032 -3.39986,-0.01564c-1.72492,-0.00212 -1.72492,-0.00212 -3.4847,-0.00429c-3.6783,-0.0056 -7.35655,-0.01816 -11.03484,-0.03087c-2.49154,-0.00501 -4.98307,-0.00958 -7.47461,-0.01367c-6.11267,-0.01018 -12.22521,-0.02976 -18.33789,-0.04883c0,-10.56 0,-21.12 0,-32z" fill="#afbdc3" fill-rule="nonzero"/><path d="M374.6875,-43.375c3.88447,2.58964 6.69907,5.64814 8.8125,9.875c0.09051,1.69544 0.11755,3.39444 0.11353,5.09229c-0.00008,1.06095 -0.00015,2.1219 -0.00023,3.215c-0.00516,1.14899 -0.01032,2.29798 -0.01564,3.48178c-0.00141,1.17356 -0.00283,2.34712 -0.00429,3.55624c-0.00561,3.75992 -0.01817,7.51979 -0.03087,11.27969c-0.00501,2.54427 -0.00958,5.08854 -0.01367,7.63281c-0.01019,6.24744 -0.02977,12.49475 -0.04883,18.74219c-10.56,0 -21.12,0 -32,0c-0.0919,-7.43877 -0.17152,-14.87557 -0.21973,-22.31445c-0.0201,-2.52969 -0.04738,-5.05933 -0.08203,-7.58887c-0.0486,-3.63911 -0.07123,-7.27761 -0.08887,-10.91699c-0.03097,-1.69251 -0.03097,-1.69251 -0.06256,-3.41922c-0.00178,-6.25307 0.21488,-10.0309 4.45319,-14.76047c5.81739,-5.24984 11.7916,-6.48532 19.1875,-3.875z" fill="#afbdc3" fill-rule="nonzero"/><path d="M310.6875,-43.375c3.88447,2.58964 6.69907,5.64814 8.8125,9.875c0.09051,1.69544 0.11755,3.39444 0.11353,5.09229c-0.00008,1.06095 -0.00015,2.1219 -0.00023,3.215c-0.00516,1.14899 -0.01032,2.29798 -0.01564,3.48178c-0.00141,1.17356 -0.00283,2.34712 -0.00429,3.55624c-0.00561,3.75992 -0.01817,7.51979 -0.03087,11.27969c-0.00501,2.54427 -0.00958,5.08854 -0.01367,7.63281c-0.01019,6.24744 -0.02977,12.49475 -0.04883,18.74219c-10.56,0 -21.12,0 -32,0c-0.0919,-7.43877 -0.17152,-14.87557 -0.21973,-22.31445c-0.0201,-2.52969 -0.04738,-5.05933 -0.08203,-7.58887c-0.0486,-3.63911 -0.07123,-7.27761 -0.08887,-10.91699c-0.03097,-1.69251 -0.03097,-1.69251 -0.06256,-3.41922c-0.00178,-6.25307 0.21488,-10.0309 4.45319,-14.76047c5.81739,-5.24984 11.7916,-6.48532 19.1875,-3.875z" fill="#afbdc3" fill-rule="nonzero"/><path d="M246.6875,-43.375c3.88447,2.58964 6.69907,5.64814 8.8125,9.875c0.09051,1.69544 0.11755,3.39444 0.11353,5.09229c-0.00008,1.06095 -0.00015,2.1219 -0.00023,3.215c-0.00516,1.14899 -0.01032,2.29798 -0.01564,3.48178c-0.00141,1.17356 -0.00283,2.34712 -0.00429,3.55624c-0.00561,3.75992 -0.01817,7.51979 -0.03087,11.27969c-0.00501,2.54427 -0.00958,5.08854 -0.01367,7.63281c-0.01019,6.24744 -0.02977,12.49475 -0.04883,18.74219c-10.56,0 -21.12,0 -32,0c-0.0919,-7.43877 -0.17152,-14.87557 -0.21973,-22.31445c-0.0201,-2.52969 -0.04738,-5.05933 -0.08203,-7.58887c-0.0486,-3.63911 -0.07123,-7.27761 -0.08887,-10.91699c-0.03097,-1.69251 -0.03097,-1.69251 -0.06256,-3.41922c-0.00178,-6.25307 0.21488,-10.0309 4.45319,-14.76047c5.81739,-5.24984 11.7916,-6.48532 19.1875,-3.875z" fill="#afbdc3" fill-rule="nonzero"/><path d="M182.6875,-43.375c3.88447,2.58964 6.69907,5.64814 8.8125,9.875c0.09051,1.69544 0.11755,3.39444 0.11353,5.09229c-0.00008,1.06095 -0.00015,2.1219 -0.00023,3.215c-0.00516,1.14899 -0.01032,2.29798 -0.01564,3.48178c-0.00141,1.17356 -0.00283,2.34712 -0.00429,3.55624c-0.00561,3.75992 -0.01817,7.51979 -0.03087,11.27969c-0.00501,2.54427 -0.00958,5.08854 -0.01367,7.63281c-0.01019,6.24744 -0.02977,12.49475 -0.04883,18.74219c-10.56,0 -21.12,0 -32,0c-0.0919,-7.43877 -0.17152,-14.87557 -0.21973,-22.31445c-0.0201,-2.52969 -0.04738,-5.05933 -0.08203,-7.58887c-0.0486,-3.63911 -0.07123,-7.27761 -0.08887,-10.91699c-0.03097,-1.69251 -0.03097,-1.69251 -0.06256,-3.41922c-0.00178,-6.25307 0.21488,-10.0309 4.45319,-14.76047c5.81739,-5.24984 11.7916,-6.48532 19.1875,-3.875z" fill="#afbdc3" fill-rule="nonzero"/><path d="M118.6875,-43.375c3.88447,2.58964 6.69907,5.64814 8.8125,9.875c0.09051,1.69544 0.11755,3.39444 0.11353,5.09229c-0.00008,1.06095 -0.00015,2.1219 -0.00023,3.215c-0.00516,1.14899 -0.01032,2.29798 -0.01564,3.48178c-0.00141,1.17356 -0.00283,2.34712 -0.00429,3.55624c-0.00561,3.75992 -0.01817,7.51979 -0.03087,11.27969c-0.00501,2.54427 -0.00958,5.08854 -0.01367,7.63281c-0.01019,6.24744 -0.02977,12.49475 -0.04883,18.74219c-10.56,0 -21.12,0 -32,0c-0.0919,-7.43877 -0.17152,-14.87557 -0.21973,-22.31445c-0.0201,-2.52969 -0.04738,-5.05933 -0.08203,-7.58887c-0.0486,-3.63911 -0.07123,-7.27761 -0.08887,-10.91699c-0.03097,-1.69251 -0.03097,-1.69251 -0.06256,-3.41922c-0.00178,-6.25307 0.21488,-10.0309 4.45319,-14.76047c5.81739,-5.24984 11.7916,-6.48532 19.1875,-3.875z" fill="#afbdc3" fill-rule="nonzero"/><path d="M351.5,339.5c10.56,0 21.12,0 32,0c0.0919,7.43877 0.17152,14.87557 0.21973,22.31445c0.0201,2.52969 0.04738,5.05933 0.08203,7.58887c0.0486,3.63911 0.07123,7.27761 0.08887,10.91699c0.02065,1.12834 0.04129,2.25669 0.06256,3.41922c0.00178,6.25307 -0.21488,10.0309 -4.45319,14.76047c-4.52266,4.08142 -7.79146,5.32365 -13.94531,5.21094c-4.73261,-0.48586 -7.8351,-2.72836 -10.86719,-6.21094c-2.84226,-3.89795 -3.31239,-6.42145 -3.30103,-11.11401c0.00008,-1.04085 0.00015,-2.08171 0.00023,-3.1541c0.00516,-1.12195 0.01032,-2.24391 0.01564,-3.39986c0.00141,-1.14995 0.00283,-2.2999 0.00429,-3.4847c0.0056,-3.6783 0.01816,-7.35655 0.03087,-11.03484c0.00501,-2.49154 0.00958,-4.98307 0.01367,-7.47461c0.01018,-6.11267 0.02976,-12.22521 0.04883,-18.33789z" fill="#afbdc3" fill-rule="nonzero"/><path d="M287.5,339.5c10.56,0 21.12,0 32,0c0.0919,7.43877 0.17152,14.87557 0.21973,22.31445c0.0201,2.52969 0.04738,5.05933 0.08203,7.58887c0.0486,3.63911 0.07123,7.27761 0.08887,10.91699c0.02065,1.12834 0.04129,2.25669 0.06256,3.41922c0.00178,6.25307 -0.21488,10.0309 -4.45319,14.76047c-4.52266,4.08142 -7.79146,5.32365 -13.94531,5.21094c-4.73261,-0.48586 -7.8351,-2.72836 -10.86719,-6.21094c-2.84226,-3.89795 -3.31239,-6.42145 -3.30103,-11.11401c0.00008,-1.04085 0.00015,-2.08171 0.00023,-3.1541c0.00516,-1.12195 0.01032,-2.24391 0.01564,-3.39986c0.00141,-1.14995 0.00283,-2.2999 0.00429,-3.4847c0.0056,-3.6783 0.01816,-7.35655 0.03087,-11.03484c0.00501,-2.49154 0.00958,-4.98307 0.01367,-7.47461c0.01018,-6.11267 0.02976,-12.22521 0.04883,-18.33789z" fill="#afbdc3" fill-rule="nonzero"/><path d="M223.5,339.5c10.56,0 21.12,0 32,0c0.0919,7.43877 0.17152,14.87557 0.21973,22.31445c0.0201,2.52969 0.04738,5.05933 0.08203,7.58887c0.0486,3.63911 0.07123,7.27761 0.08887,10.91699c0.02065,1.12834 0.04129,2.25669 0.06256,3.41922c0.00178,6.25307 -0.21488,10.0309 -4.45319,14.76047c-4.52266,4.08142 -7.79146,5.32365 -13.94531,5.21094c-4.73261,-0.48586 -7.8351,-2.72836 -10.86719,-6.21094c-2.84226,-3.89795 -3.31239,-6.42145 -3.30103,-11.11401c0.00008,-1.04085 0.00015,-2.08171 0.00023,-3.1541c0.00516,-1.12195 0.01032,-2.24391 0.01564,-3.39986c0.00141,-1.14995 0.00283,-2.2999 0.00429,-3.4847c0.0056,-3.6783 0.01816,-7.35655 0.03087,-11.03484c0.00501,-2.49154 0.00958,-4.98307 0.01367,-7.47461c0.01018,-6.11267 0.02976,-12.22521 0.04883,-18.33789z" fill="#afbdc3" fill-rule="nonzero"/><path d="M159.5,339.5c10.56,0 21.12,0 32,0c0.0919,7.43877 0.17152,14.87557 0.21973,22.31445c0.0201,2.52969 0.04738,5.05933 0.08203,7.58887c0.0486,3.63911 0.07123,7.27761 0.08887,10.91699c0.02065,1.12834 0.04129,2.25669 0.06256,3.41922c0.00178,6.25307 -0.21488,10.0309 -4.45319,14.76047c-4.52266,4.08142 -7.79146,5.32365 -13.94531,5.21094c-4.73261,-0.48586 -7.8351,-2.72836 -10.86719,-6.21094c-2.84226,-3.89795 -3.31239,-6.42145 -3.30103,-11.11401c0.00008,-1.04085 0.00015,-2.08171 0.00023,-3.1541c0.00516,-1.12195 0.01032,-2.24391 0.01564,-3.39986c0.00141,-1.14995 0.00283,-2.2999 0.00429,-3.4847c0.0056,-3.6783 0.01816,-7.35655 0.03087,-11.03484c0.00501,-2.49154 0.00958,-4.98307 0.01367,-7.47461c0.01018,-6.11267 0.02976,-12.22521 0.04883,-18.33789z" fill="#afbdc3" fill-rule="nonzero"/><path d="M95.5,339.5c10.56,0 21.12,0 32,0c0.0919,7.43877 0.17152,14.87557 0.21973,22.31445c0.0201,2.52969 0.04738,5.05933 0.08203,7.58887c0.0486,3.63911 0.07123,7.27761 0.08887,10.91699c0.02065,1.12834 0.04129,2.25669 0.06256,3.41922c0.00178,6.25307 -0.21488,10.0309 -4.45319,14.76047c-4.52266,4.08142 -7.79146,5.32365 -13.94531,5.21094c-4.73261,-0.48586 -7.8351,-2.72836 -10.86719,-6.21094c-2.84226,-3.89795 -3.31239,-6.42145 -3.30103,-11.11401c0.00008,-1.04085 0.00015,-2.08171 0.00023,-3.1541c0.00516,-1.12195 0.01032,-2.24391 0.01564,-3.39986c0.00141,-1.14995 0.00283,-2.2999 0.00429,-3.4847c0.0056,-3.6783 0.01816,-7.35655 0.03087,-11.03484c0.00501,-2.49154 0.00958,-4.98307 0.01367,-7.47461c0.01018,-6.11267 0.02976,-12.22521 0.04883,-18.33789z" fill="#afbdc3" fill-rule="nonzero"/><path d="M399.5,291.5c7.29571,-0.07424 14.59121,-0.12865 21.88721,-0.16479c2.48116,-0.01507 4.96229,-0.03553 7.44336,-0.06152c3.56957,-0.03645 7.13878,-0.05342 10.7085,-0.06665c1.10647,-0.01548 2.21294,-0.03097 3.35294,-0.04692c7.40835,-0.00161 11.94745,0.73846 17.4205,6.08989c2.1875,3.25 2.1875,3.25 3.1875,10.25c-21.12,0 -42.24,0 -64,0c0,-5.28 0,-10.56 0,-16z" fill="#cdd7db" fill-rule="nonzero"/><path d="M32.84106,291.27295c1.56105,0.00023 1.56105,0.00023 3.15364,0.00046c1.66745,0.01548 1.66745,0.01548 3.36858,0.03128c1.14712,0.00283 2.29424,0.00566 3.47612,0.00858c3.65781,0.01118 7.31537,0.03628 10.9731,0.06174c2.48242,0.01003 4.96484,0.01916 7.44727,0.02734c6.08017,0.02203 12.16016,0.05655 18.24023,0.09766c0,5.28 0,10.56 0,16c-21.12,0 -42.24,0 -64,0c1.13325,-7.93272 1.13325,-7.93272 3.75,-10.8125c0.48984,-0.56332 0.97969,-1.12664 1.48438,-1.70703c3.66976,-3.07708 7.42234,-3.73031 12.10669,-3.70752z" fill="#cdd7db" fill-rule="nonzero"/><path d="M399.5,227.5c7.29571,-0.07424 14.59121,-0.12865 21.88721,-0.16479c2.48116,-0.01507 4.96229,-0.03553 7.44336,-0.06152c3.56957,-0.03645 7.13878,-0.05342 10.7085,-0.06665c1.10647,-0.01548 2.21294,-0.03097 3.35294,-0.04692c7.40835,-0.00161 11.94745,0.73846 17.4205,6.08989c2.1875,3.25 2.1875,3.25 3.1875,10.25c-21.12,0 -42.24,0 -64,0c0,-5.28 0,-10.56 0,-16z" fill="#cdd7db" fill-rule="nonzero"/><path d="M32.84106,227.27295c1.56105,0.00023 1.56105,0.00023 3.15364,0.00046c1.66745,0.01548 1.66745,0.01548 3.36858,0.03128c1.14712,0.00283 2.29424,0.00566 3.47612,0.00858c3.65781,0.01118 7.31537,0.03628 10.9731,0.06174c2.48242,0.01003 4.96484,0.01916 7.44727,0.02734c6.08017,0.02203 12.16016,0.05655 18.24023,0.09766c0,5.28 0,10.56 0,16c-21.12,0 -42.24,0 -64,0c1.13325,-7.93272 1.13325,-7.93272 3.75,-10.8125c0.48984,-0.56332 0.97969,-1.12664 1.48438,-1.70703c3.66976,-3.07708 7.42234,-3.73031 12.10669,-3.70752z" fill="#cdd7db" fill-rule="nonzero"/><path d="M399.5,163.5c7.29571,-0.07424 14.59121,-0.12865 21.88721,-0.16479c2.48116,-0.01507 4.96229,-0.03553 7.44336,-0.06152c3.56957,-0.03645 7.13878,-0.05342 10.7085,-0.06665c1.10647,-0.01548 2.21294,-0.03097 3.35294,-0.04692c7.40835,-0.00161 11.94745,0.73846 17.4205,6.08989c2.1875,3.25 2.1875,3.25 3.1875,10.25c-21.12,0 -42.24,0 -64,0c0,-5.28 0,-10.56 0,-16z" fill="#cdd7db" fill-rule="nonzero"/><path d="M32.84106,163.27295c1.56105,0.00023 1.56105,0.00023 3.15364,0.00046c1.66745,0.01548 1.66745,0.01548 3.36858,0.03128c1.14712,0.00283 2.29424,0.00566 3.47612,0.00858c3.65781,0.01118 7.31537,0.03628 10.9731,0.06174c2.48242,0.01003 4.96484,0.01916 7.44727,0.02734c6.08017,0.02203 12.16016,0.05655 18.24023,0.09766c0,5.28 0,10.56 0,16c-21.12,0 -42.24,0 -64,0c1.13325,-7.93272 1.13325,-7.93272 3.75,-10.8125c0.48984,-0.56332 0.97969,-1.12664 1.48438,-1.70703c3.66976,-3.07708 7.42234,-3.73031 12.10669,-3.70752z" fill="#cdd7db" fill-rule="nonzero"/><path d="M399.5,99.5c7.29571,-0.07424 14.59121,-0.12865 21.88721,-0.16479c2.48116,-0.01507 4.96229,-0.03553 7.44336,-0.06152c3.56957,-0.03645 7.13878,-0.05342 10.7085,-0.06665c1.10647,-0.01548 2.21294,-0.03097 3.35294,-0.04692c7.40835,-0.00161 11.94745,0.73846 17.4205,6.08989c2.1875,3.25 2.1875,3.25 3.1875,10.25c-21.12,0 -42.24,0 -64,0c0,-5.28 0,-10.56 0,-16z" fill="#cdd7db" fill-rule="nonzero"/><path d="M32.84106,99.27295c1.56105,0.00023 1.56105,0.00023 3.15364,0.00046c1.66745,0.01548 1.66745,0.01548 3.36858,0.03128c1.14712,0.00283 2.29424,0.00566 3.47612,0.00858c3.65781,0.01118 7.31537,0.03628 10.9731,0.06174c2.48242,0.01003 4.96484,0.01916 7.44727,0.02734c6.08017,0.02203 12.16016,0.05655 18.24023,0.09766c0,5.28 0,10.56 0,16c-21.12,0 -42.24,0 -64,0c1.13325,-7.93272 1.13325,-7.93272 3.75,-10.8125c0.48984,-0.56332 0.97969,-1.12664 1.48438,-1.70703c3.66976,-3.07708 7.42234,-3.73031 12.10669,-3.70752z" fill="#cdd7db" fill-rule="nonzero"/><path d="M399.5,35.5c7.29571,-0.07424 14.59121,-0.12865 21.88721,-0.16479c2.48116,-0.01507 4.96229,-0.03553 7.44336,-0.06152c3.56957,-0.03645 7.13878,-0.05342 10.7085,-0.06665c1.10647,-0.01548 2.21294,-0.03097 3.35294,-0.04692c7.40835,-0.00161 11.94745,0.73846 17.4205,6.08989c2.1875,3.25 2.1875,3.25 3.1875,10.25c-21.12,0 -42.24,0 -64,0c0,-5.28 0,-10.56 0,-16z" fill="#cdd7db" fill-rule="nonzero"/><path d="M32.84106,35.27295c1.56105,0.00023 1.56105,0.00023 3.15364,0.00046c1.66745,0.01548 1.66745,0.01548 3.36858,0.03128c1.14712,0.00283 2.29424,0.00566 3.47612,0.00858c3.65781,0.01118 7.31537,0.03628 10.9731,0.06174c2.48242,0.01003 4.96484,0.01916 7.44727,0.02734c6.08017,0.02203 12.16016,0.05655 18.24023,0.09766c0,5.28 0,10.56 0,16c-21.12,0 -42.24,0 -64,0c1.13325,-7.93272 1.13325,-7.93272 3.75,-10.8125c0.48984,-0.56332 0.97969,-1.12664 1.48438,-1.70703c3.66976,-3.07708 7.42234,-3.73031 12.10669,-3.70752z" fill="#cdd7db" fill-rule="nonzero"/><path d="M367.5,-44.5c0,21.12 0,42.24 0,64c-5.28,0 -10.56,0 -16,0c-0.09898,-7.43811 -0.17152,-14.87584 -0.21973,-22.31445c-0.0201,-2.52969 -0.04738,-5.05933 -0.08203,-7.58887c-0.0486,-3.63911 -0.07123,-7.27761 -0.08887,-10.91699c-0.03097,-1.69251 -0.03097,-1.69251 -0.06256,-3.41922c-0.00178,-6.25307 0.21488,-10.0309 4.45319,-14.76047c4.05249,-3.65713 6.44701,-5 12,-5z" fill="#cdd7db" fill-rule="nonzero"/><path d="M303.5,-44.5c0,21.12 0,42.24 0,64c-5.28,0 -10.56,0 -16,0c-0.09898,-7.43811 -0.17152,-14.87584 -0.21973,-22.31445c-0.0201,-2.52969 -0.04738,-5.05933 -0.08203,-7.58887c-0.0486,-3.63911 -0.07123,-7.27761 -0.08887,-10.91699c-0.03097,-1.69251 -0.03097,-1.69251 -0.06256,-3.41922c-0.00178,-6.25307 0.21488,-10.0309 4.45319,-14.76047c4.05249,-3.65713 6.44701,-5 12,-5z" fill="#cdd7db" fill-rule="nonzero"/><path d="M239.5,-44.5c0,21.12 0,42.24 0,64c-5.28,0 -10.56,0 -16,0c-0.09898,-7.43811 -0.17152,-14.87584 -0.21973,-22.31445c-0.0201,-2.52969 -0.04738,-5.05933 -0.08203,-7.58887c-0.0486,-3.63911 -0.07123,-7.27761 -0.08887,-10.91699c-0.03097,-1.69251 -0.03097,-1.69251 -0.06256,-3.41922c-0.00178,-6.25307 0.21488,-10.0309 4.45319,-14.76047c4.05249,-3.65713 6.44701,-5 12,-5z" fill="#cdd7db" fill-rule="nonzero"/><path d="M175.5,-44.5c0,21.12 0,42.24 0,64c-5.28,0 -10.56,0 -16,0c-0.09898,-7.43811 -0.17152,-14.87584 -0.21973,-22.31445c-0.0201,-2.52969 -0.04738,-5.05933 -0.08203,-7.58887c-0.0486,-3.63911 -0.07123,-7.27761 -0.08887,-10.91699c-0.03097,-1.69251 -0.03097,-1.69251 -0.06256,-3.41922c-0.00178,-6.25307 0.21488,-10.0309 4.45319,-14.76047c4.05249,-3.65713 6.44701,-5 12,-5z" fill="#cdd7db" fill-rule="nonzero"/><path d="M111.5,-44.5c0,21.12 0,42.24 0,64c-5.28,0 -10.56,0 -16,0c-0.09898,-7.43811 -0.17152,-14.87584 -0.21973,-22.31445c-0.0201,-2.52969 -0.04738,-5.05933 -0.08203,-7.58887c-0.0486,-3.63911 -0.07123,-7.27761 -0.08887,-10.91699c-0.03097,-1.69251 -0.03097,-1.69251 -0.06256,-3.41922c-0.00178,-6.25307 0.21488,-10.0309 4.45319,-14.76047c4.05249,-3.65713 6.44701,-5 12,-5z" fill="#cdd7db" fill-rule="nonzero"/><path d="M351.5,339.5c5.28,0 10.56,0 16,0c0,21.12 0,42.24 0,64c-6.94236,-0.99177 -8.39157,-1.28684 -13,-6c-3.8717,-5.6855 -3.38554,-11.34592 -3.29297,-17.96094c0.00424,-1.1457 0.00849,-2.29141 0.01286,-3.47183c0.01675,-3.64765 0.0544,-7.29475 0.09261,-10.94223c0.01505,-2.47786 0.02874,-4.95572 0.04102,-7.43359c0.03302,-6.06402 0.08478,-12.12762 0.14648,-18.19141z" fill="#cdd7db" fill-rule="nonzero"/><path d="M287.5,339.5c5.28,0 10.56,0 16,0c0,21.12 0,42.24 0,64c-6.94236,-0.99177 -8.39157,-1.28684 -13,-6c-3.8717,-5.6855 -3.38554,-11.34592 -3.29297,-17.96094c0.00424,-1.1457 0.00849,-2.29141 0.01286,-3.47183c0.01675,-3.64765 0.0544,-7.29475 0.09261,-10.94223c0.01505,-2.47786 0.02874,-4.95572 0.04102,-7.43359c0.03302,-6.06402 0.08478,-12.12762 0.14648,-18.19141z" fill="#cdd7db" fill-rule="nonzero"/><path d="M223.5,339.5c5.28,0 10.56,0 16,0c0,21.12 0,42.24 0,64c-6.94236,-0.99177 -8.39157,-1.28684 -13,-6c-3.8717,-5.6855 -3.38554,-11.34592 -3.29297,-17.96094c0.00424,-1.1457 0.00849,-2.29141 0.01286,-3.47183c0.01675,-3.64765 0.0544,-7.29475 0.09261,-10.94223c0.01505,-2.47786 0.02874,-4.95572 0.04102,-7.43359c0.03302,-6.06402 0.08478,-12.12762 0.14648,-18.19141z" fill="#cdd7db" fill-rule="nonzero"/><path d="M159.5,339.5c5.28,0 10.56,0 16,0c0,21.12 0,42.24 0,64c-6.94236,-0.99177 -8.39157,-1.28684 -13,-6c-3.8717,-5.6855 -3.38554,-11.34592 -3.29297,-17.96094c0.00424,-1.1457 0.00849,-2.29141 0.01286,-3.47183c0.01675,-3.64765 0.0544,-7.29475 0.09261,-10.94223c0.01505,-2.47786 0.02874,-4.95572 0.04102,-7.43359c0.03302,-6.06402 0.08478,-12.12762 0.14648,-18.19141z" fill="#cdd7db" fill-rule="nonzero"/><path d="M95.5,339.5c5.28,0 10.56,0 16,0c0,21.12 0,42.24 0,64c-6.94236,-0.99177 -8.39157,-1.28684 -13,-6c-3.8717,-5.6855 -3.38554,-11.34592 -3.29297,-17.96094c0.00424,-1.1457 0.00849,-2.29141 0.01286,-3.47183c0.01675,-3.64765 0.0544,-7.29475 0.09261,-10.94223c0.01505,-2.47786 0.02874,-4.95572 0.04102,-7.43359c0.03302,-6.06402 0.08478,-12.12762 0.14648,-18.19141z" fill="#cdd7db" fill-rule="nonzero"/><path d="M350.665,194.022c-2.874,0 -5.303,0 -8.213,0c0,2.864 0,5.616 0,8.364c0,4.053 -3.231,7.339 -7.284,7.339v0c-4.053,0 -7.393,-3.286 -7.393,-7.339c0,-2.692 0,-5.455 0,-8.335c-5.302,0 -5.337,0 -10.391,0c0,-4.933 0,-9.422 0,-14.259c4.908,0 4.957,0 10.114,0c0,-2.795 0,-5.5 0,-8.211c0,-4.098 3.304,-7.42 7.402,-7.42v0c4.098,0 7.437,3.322 7.437,7.42c0,2.636 0,5.288 0,8.02c2.529,0 4.939,0 7.337,0c3.983,0 7.211,3.228 7.211,7.211c0,0.329 0,0.659 0,0.99c0,3.436 -2.785,6.221 -6.22,6.22z" fill="#ff8236" fill-rule="nonzero"/><path d="M274.094,179.863c2.875,0.001 5.304,0.001 8.213,0.001c0,-2.864 0,-5.616 0,-8.364c0,-4.053 3.231,-7.339 7.284,-7.339v0c4.053,0 7.393,3.285 7.393,7.338c0,2.693 0,5.456 0,8.336c5.303,0 5.33,0 10.384,0c0,4.933 0,9.422 0,14.258c-4.908,0 -4.949,0 -10.106,0c0,2.796 0,5.501 0,8.212c0,4.098 -3.305,7.42 -7.402,7.42v0c-4.098,0 -7.438,-3.322 -7.438,-7.42c0,-2.636 0,-5.288 0,-8.02c-2.529,0 -4.938,0 -7.337,0c-3.982,0 -7.211,-3.229 -7.211,-7.211c0,-0.329 0,-0.659 0,-0.991c0,-3.435 2.785,-6.22 6.22,-6.22z" fill="#ff8236" fill-rule="nonzero"/><path d="M263.114,82.2382c2.835,1.4024 1.973,3.4389 1.177,5.2372c-0.29,0.6555 -0.578,1.3127 -0.867,1.9702c-1.601,3.6519 -3.207,7.3137 -5.17,10.7666c-2.564,4.5123 -3.285,8.8912 -2.536,13.2128c1.061,0.2217 2.128,0.4532 3.198,0.6944c2.147,-7.9521 5.397,-15.2528 12.424,-20.741c3.897,-3.0437 8.541,-3.8489 13.401,-2.9617c3.065,0.5594 3.613,1.7372 1.979,4.368c-0.112,0.18 -0.224,0.3602 -0.336,0.5405c-1.503,2.4235 -3.02,4.8712 -4.862,7.024c-4.817,5.6326 -4.443,11.5121 -1.389,17.6701c0.684,0.2263 1.367,0.4558 2.05,0.6885c11.5,3.9209 16.333,17.0672 11.268,28.1112l-2.502,5.454c-16.156,-7.41 -34.512,-14.173 -50.379,-16.456c-0.277,-0.04 -0.645,-0.098 -1.091,-0.168c-5.93,-0.9267 -25.5861,-4.0001 -27.4553,3.802l-0.0046,0.019c-0.9651,3.957 -0.1059,7.891 0.7609,11.86c1.1507,5.269 2.315,10.6 -0.7563,16.128c-2.9285,5.271 -8.642,7.887 -14.1499,9.877c-0.9884,0.357 -2.0196,0.716 -3.0772,1.084c-10.7732,3.749 -24.2908,8.452 -23.2964,22.007c1.3564,18.49 26.2211,22.681 42.3751,25.404c0.594,0.1 1.1762,0.198 1.745,0.295c9.7897,1.666 20.2107,-0.899 30.5107,-3.434c9.228,-2.272 18.359,-4.52 26.85,-3.678c9.47,0.939 16.215,5.976 22.313,10.53c5.471,4.086 10.423,7.784 16.357,7.784c7.044,0 12.008,-2.176 15.579,-3.742c2.79,-1.223 4.729,-2.073 6.144,-1.22c3.227,1.943 -5.394,23.916 -21.723,23.916c-8.524,0 -14.957,-2.823 -21.106,-5.521c-5.629,-2.471 -11.021,-4.837 -17.564,-4.837c-5.121,0 -11.365,1.845 -18.682,4.006c-12.241,3.616 -27.481,8.117 -45.4792,6.352c-28.7562,-2.821 -71.3265,-18.74 -73.7027,-51.13c-1.9996,-27.257 27.4573,-46.045 50.1739,-53.142c-2.6735,-13.165 -1.067,-26.0421 9.5605,-35.2953c6.5402,-5.6944 15.3542,-7.7151 22.9346,-8.4239c4.9619,-0.464 10.3319,-0.4457 15.9029,-0.0492c1.335,-6.0569 3.634,-11.8171 7.215,-17.0347c5.252,-7.654 12.45,-11.6323 22.21,-10.9677zM285.455,134.0679c0,3.0781 -2.495,5.5731 -5.573,5.5731c-3.078,0 -5.574,-2.495 -5.574,-5.5731c0,-3.078 2.496,-5.5733 5.574,-5.5733c3.078,0 5.573,2.4953 5.573,5.5733z" fill="#ff8236" fill-rule="evenodd"/></g></g></svg>